PathFileType	4	(X/Y/Z)	/Users/itak/Documents/Research/Walk-IL/dataset/trc/00411_00012.trc
DataRate	CameraRate	NumFrames	NumMarkers	Units	OrigDataRate	OrigDataStartFrame	OrigNumFrames
100.000000	100.000000	4	53	mm	100.000000	532	608
Frame#	Time	RPSI			LPSI			L3			STRN			T10			C7			CLAV			RBAK			LBAK			LSHO			LUPA			LAEL			LAOL			LWTS			LWPS			LFRA			LIFD			LHPS			RSHO			RUPA			RAEL			RAOL			RWTS			RWPS			RFRA			RIFD			RHPS			RBHD			LFHD			RFHD			LBHD			LHIP			RHIP			RASI			LASI			LKNE			LTHI			LANK			LTIP			LTOE			LMT5			LHEE			RKNE			RTHI			RANK			RTIP			RTOE			RMT1			RMT5			RHEE			LHTS			RHTS			LMT1			
		X1	Y1	Z1	X2	Y2	Z2	X3	Y3	Z3	X4	Y4	Z4	X5	Y5	Z5	X6	Y6	Z6	X7	Y7	Z7	X8	Y8	Z8	X9	Y9	Z9	X10	Y10	Z10	X11	Y11	Z11	X12	Y12	Z12	X13	Y13	Z13	X14	Y14	Z14	X15	Y15	Z15	X16	Y16	Z16	X17	Y17	Z17	X18	Y18	Z18	X19	Y19	Z19	X20	Y20	Z20	X21	Y21	Z21	X22	Y22	Z22	X23	Y23	Z23	X24	Y24	Z24	X25	Y25	Z25	X26	Y26	Z26	X27	Y27	Z27	X28	Y28	Z28	X29	Y29	Z29	X30	Y30	Z30	X31	Y31	Z31	X32	Y32	Z32	X33	Y33	Z33	X34	Y34	Z34	X35	Y35	Z35	X36	Y36	Z36	X37	Y37	Z37	X38	Y38	Z38	X39	Y39	Z39	X40	Y40	Z40	X41	Y41	Z41	X42	Y42	Z42	X43	Y43	Z43	X44	Y44	Z44	X45	Y45	Z45	X46	Y46	Z46	X47	Y47	Z47	X48	Y48	Z48	X49	Y49	Z49	X50	Y50	Z50	X51	Y51	Z51	X52	Y52	Z52	X53	Y53	Z53	

533	5.32	1152.155517578125	965.8833618164062	-373.9115295410156	1020.730285644531	959.4080810546875	-361.0292663574219	1093.518432617188	1042.64892578125	-363.6013488769531	1087.621826171875	1206.593505859375	-591.5234985351562	1095.682495117188	1145.639770507812	-343.097412109375	1096.07861328125	1395.6904296875	-373.4286499023438	1093.349365234375	1322.251708984375	-532.1260986328125	1160.113403320312	1248.382446289062	-335.5381164550781	992.6975708007812	1361.716918945312	-355.8621215820312	940.7612915039062	1382.899780273438	-441.1934509277344	862.5147705078125	1270.354248046875	-426.70166015625	823.5730590820312	1079.966064453125	-473.5551147460938	881.7459716796875	1046.940063476562	-417.009521484375	856.3969116210938	900.5112915039062	-618.5935668945312	789.7142944335938	875.2955322265625	-574.9744873046875	807.4434204101562	985.0667114257812	-513.8092041015625	838.5670166015625	732.4200439453125	-679.8057250976562	792.9880981445312	798.1128540039062	-615.572998046875	1251.029174804688	1372.762084960938	-438.0871887207031	1307.117797851562	1307.563354492188	-424.8304748535156	1337.374633789062	1045.444702148438	-412.119384765625	1244.835327148438	1040.219970703125	-395.6114501953125	1315.140502929688	820.7769775390625	-522.619140625	1372.423461914062	814.960693359375	-476.0733947753906	1355.053100585938	979.3203735351562	-431.1860961914062	1316.825439453125	641.80517578125	-503.5746154785156	1373.033447265625	726.176025390625	-469.4273071289062	1192.951904296875	1584.874633789062	-434.8996887207031	1025.002563476562	1589.35888671875	-543.9780883789062	1147.074951171875	1593.337036132812	-560.7782592773438	1037.571899414062	1578.578491210938	-395.6151733398438	902.771484375	961.5291137695312	-441.349853515625	1251.322265625	946.6134033203125	-469.5796508789062	1194.081176757812	963.0529174804688	-596.47265625	932.8499145507812	967.9419555664062	-561.252197265625	889.6992797851562	473.5289001464844	-518.890625	886.9210815429688	615.0651245117188	-502.2561645507812	905.5663452148438	31.48397636413574	-430.8407287597656	887.0049438476562	242.6667785644531	-469.9529418945312	965.33740234375	37.26877593994141	-641.8171997070312	889.3202514648438	32.79923248291016	-557.2822265625	960.6195068359375	27.06669616699219	-392.7432250976562	1200.867431640625	460.4287719726562	-509.9453430175781	1238.612670898438	722.5279541015625	-552.6897583007812	1138.162719726562	42.36160659790039	-439.0458068847656	1177.696166992188	334.6994323730469	-512.0148315429688	1072.129760742188	33.76376342773438	-616.837158203125	1042.032104492188	38.97427749633789	-542.0616455078125	1144.0986328125	33.06847381591797	-521.8771362304688	1082.443725585938	31.34364700317383	-366.4257507324219	829.7006225585938	816.8663940429688	-666.1228637695312	1334.456665039062	711.3709716796875	-525.6172485351562	997.4073486328125	37.1184196472168	-563.6539306640625	
534	5.33	1152.24755859375	966.274169921875	-373.291015625	1020.392883300781	959.4566040039062	-361.1137084960938	1093.361206054688	1042.794189453125	-362.1310119628906	1087.545043945312	1206.520874023438	-591.8944091796875	1095.335571289062	1145.739624023438	-343.2047424316406	1095.558471679688	1395.793579101562	-373.9020385742188	1093.17919921875	1322.226806640625	-532.5974731445312	1159.66796875	1248.543579101562	-335.7651672363281	992.2060546875	1361.784912109375	-356.5231323242188	940.4126586914062	1382.856689453125	-441.9356689453125	862.2461547851562	1270.278686523438	-427.7117309570312	823.77099609375	1079.785766601562	-474.86376953125	881.7946166992188	1046.640869140625	-418.1356811523438	857.1546630859375	899.4780883789062	-619.0397338867188	790.5331420898438	874.5053100585938	-575.408447265625	807.925048828125	984.6920776367188	-514.9550170898438	839.7872314453125	730.96337890625	-679.1687622070312	794.0121459960938	797.0327758789062	-615.50244140625	1250.629028320312	1372.916748046875	-438.3176574707031	1306.711059570312	1307.781860351562	-424.8845520019531	1336.922729492188	1045.656494140625	-411.7501220703125	1244.242553710938	1040.337280273438	-395.6765441894531	1314.777709960938	821.5103149414062	-523.1001586914062	1371.81787109375	815.17041015625	-476.2616882324219	1354.550048828125	979.4718017578125	-430.9202270507812	1316.369384765625	642.889892578125	-504.7091979980469	1372.267822265625	726.3615112304688	-470.1739501953125	1192.502563476562	1584.970336914062	-435.2271118164062	1024.701782226562	1589.441284179688	-544.5804443359375	1146.802734375	1593.491088867188	-561.1578979492188	1036.943115234375	1578.52587890625	-396.1792907714844	902.5909423828125	961.5619506835938	-441.4592895507812	1251.201171875	946.725830078125	-469.7379455566406	1193.88623046875	963.0264892578125	-596.55224609375	932.6925659179688	968.0333251953125	-561.6138916015625	889.4899291992188	473.4933776855469	-518.5986938476562	886.7749633789062	615.03662109375	-502.0755004882812	905.5665893554688	31.50785636901855	-430.8268127441406	887.031982421875	242.6068420410156	-469.8205261230469	965.3278198242188	37.24977874755859	-641.8285522460938	889.3126220703125	32.79755401611328	-557.2858276367188	960.6244506835938	27.06940078735352	-392.7518310546875	1200.696411132812	460.3718566894531	-510.1047973632812	1238.417602539062	722.4447021484375	-552.72998046875	1138.1484375	42.35446929931641	-439.020751953125	1177.61083984375	334.6031494140625	-512.1609497070312	1072.073852539062	33.79403305053711	-616.8071899414062	1042.002075195312	38.94420623779297	-542.0239868164062	1144.091186523438	33.07816314697266	-521.876220703125	1082.4375	31.26996612548828	-366.4023742675781	830.7728271484375	815.514892578125	-666.0916137695312	1334.109985351562	712.4471435546875	-526.84912109375	997.4765625	37.0989875793457	-563.6415405273438	
535	5.34	1152.22265625	966.5380249023438	-372.9279174804688	1020.033996582031	959.5125122070312	-361.1987609863281	1093.042846679688	1042.734619140625	-361.2477111816406	1087.492553710938	1206.4619140625	-592.24951171875	1094.990234375	1145.825439453125	-343.3190307617188	1095.034790039062	1395.89404296875	-374.3517761230469	1093.021606445312	1322.2119140625	-533.0455322265625	1159.250732421875	1248.697875976562	-335.9600219726562	991.696044921875	1361.857177734375	-357.1731262207031	940.0444946289062	1382.80810546875	-442.6567993164062	861.9932250976562	1270.182739257812	-428.7069396972656	824.0106201171875	1079.577758789062	-476.0857238769531	881.8656005859375	1046.418701171875	-419.1263732910156	857.9638061523438	898.2854614257812	-619.2685546875	791.3920288085938	873.6168212890625	-575.61181640625	808.4573974609375	984.253662109375	-515.9677734375	841.0618286132812	729.304443359375	-678.13818359375	795.0711669921875	795.81640625	-615.1303100585938	1250.233764648438	1373.061889648438	-438.5097351074219	1306.289306640625	1307.972290039062	-424.8776245117188	1336.502685546875	1045.853515625	-411.4454345703125	1243.703735351562	1040.425659179688	-395.7530212402344	1314.422119140625	822.2591552734375	-523.7367553710938	1371.255249023438	815.43115234375	-476.6685791015625	1354.076171875	979.6155395507812	-430.7668151855469	1316.003784179688	644.1937866210938	-506.17138671875	1371.550903320312	726.6080322265625	-471.2025451660156	1192.038452148438	1585.072387695312	-435.5171203613281	1024.394775390625	1589.512451171875	-545.15380859375	1146.524658203125	1593.650146484375	-561.5003662109375	1036.323120117188	1578.454467773438	-396.7184143066406	902.3258666992188	961.5985717773438	-441.5917358398438	1251.068237304688	946.8070068359375	-469.8429260253906	1193.679565429688	962.9688110351562	-596.5785522460938	932.54296875	968.105224609375	-561.9471435546875	889.2918090820312	473.4626159667969	-518.3462524414062	886.5894775390625	615.0303955078125	-501.9285888671875	905.5647583007812	31.5382194519043	-430.8014831542969	887.0537719726562	242.5586853027344	-469.7014770507812	965.3195190429688	37.23741912841797	-641.83447265625	889.3068237304688	32.79601287841797	-557.2881469726562	960.6248168945312	27.07041549682617	-392.7605285644531	1200.538940429688	460.3144836425781	-510.219482421875	1238.227661132812	722.3472290039062	-552.7225341796875	1138.140380859375	42.34538650512695	-438.9940490722656	1177.5234375	334.5166015625	-512.3015747070312	1072.022705078125	33.83421325683594	-616.7723388671875	1041.975463867188	38.9238166809082	-541.9845581054688	1144.082641601562	33.08427047729492	-521.878173828125	1082.433837890625	31.20137214660645	-366.3758544921875	831.906494140625	813.964599609375	-665.7667846679688	1333.854125976562	713.73974609375	-528.4116821289062	997.5700073242188	37.07690811157227	-563.6248168945312	
536	5.350000000000001	1152.072998046875	966.6936645507812	-372.7828979492188	1019.669799804688	959.5794677734375	-361.2869567871094	1092.599609375	1042.503173828125	-360.9043884277344	1087.4619140625	1206.41748046875	-592.5902709960938	1094.639892578125	1145.893310546875	-343.4503479003906	1094.509155273438	1395.993896484375	-374.7825927734375	1092.865844726562	1322.206420898438	-533.4661254882812	1158.846923828125	1248.856567382812	-336.1199340820312	991.171875	1361.932739257812	-357.8092956542969	939.6541748046875	1382.753784179688	-443.3567504882812	861.7516479492188	1270.064086914062	-429.686279296875	824.29052734375	1079.348022460938	-477.2143249511719	881.9387817382812	1046.265014648438	-419.9833068847656	858.83203125	896.9596557617188	-619.289306640625	792.2589721679688	872.64453125	-575.6025390625	809.0286865234375	983.7504272460938	-516.8405151367188	842.3948364257812	727.4635620117188	-676.72216796875	796.1527099609375	794.4823608398438	-614.4725952148438	1249.843139648438	1373.198852539062	-438.6660461425781	1305.851318359375	1308.129760742188	-424.8187255859375	1336.104736328125	1046.02685546875	-411.2083435058594	1243.207153320312	1040.479248046875	-395.8631591796875	1314.066772460938	822.98779296875	-524.5033569335938	1370.736083984375	815.737060546875	-477.2820739746094	1353.633422851562	979.749267578125	-430.7203369140625	1315.706665039062	645.6300659179688	-507.9014282226562	1370.894897460938	726.908447265625	-472.4896240234375	1191.559326171875	1585.177368164062	-435.7699890136719	1024.08642578125	1589.570678710938	-545.6974487304688	1146.241333007812	1593.810180664062	-561.8045043945312	1035.726318359375	1578.374755859375	-397.2342224121094	901.9640502929688	961.6380615234375	-441.7528381347656	1250.931762695312	946.860107421875	-469.9019165039062	1193.46923828125	962.8829345703125	-596.558837890625	932.4073486328125	968.1533813476562	-562.2254638671875	889.1126098632812	473.4366455078125	-518.1375732421875	886.3253173828125	615.0535278320312	-501.824462890625	905.5624389648438	31.56831741333008	-430.7687683105469	887.0682373046875	242.5200347900391	-469.5979919433594	965.3126220703125	37.23085021972656	-641.8366088867188	889.3025512695312	32.79455184936523	-557.2893676757812	960.6218872070312	27.07054138183594	-392.7682495117188	1200.393188476562	460.2522888183594	-510.2908935546875	1238.044677734375	722.2379760742188	-552.674072265625	1138.137573242188	42.33657836914062	-438.9660034179688	1177.43359375	334.448486328125	-512.4303588867188	1071.982543945312	33.88333129882812	-616.7351684570312	1041.95166015625	38.9113883972168	-541.9444580078125	1144.072143554688	33.08800506591797	-521.8817749023438	1082.430053710938	31.13499641418457	-366.3463439941406	833.0986938476562	812.2315673828125	-665.156982421875	1333.6650390625	715.1611938476562	-530.2418212890625	997.6755981445312	37.05377960205078	-563.6094360351562	
